<svg xmlns="http://www.w3.org/2000/svg" width="1200" height="670" viewBox="0 0 1200 670">
<rect width="100%" height="100%" fill="white"/>
<g font-family="Malgun Gothic, Apple SD Gothic Neo, sans-serif">
<line x1="95" y1="555.00" x2="1155" y2="555.00" stroke="#d9d9d9" stroke-width="1"/>
<text x="83" y="561.00" text-anchor="end" font-size="18" fill="#555555">-7.6%</text>
<line x1="95" y1="454.00" x2="1155" y2="454.00" stroke="#d9d9d9" stroke-width="1"/>
<text x="83" y="460.00" text-anchor="end" font-size="18" fill="#555555">-4.7%</text>
<line x1="95" y1="353.00" x2="1155" y2="353.00" stroke="#d9d9d9" stroke-width="1"/>
<text x="83" y="359.00" text-anchor="end" font-size="18" fill="#555555">-1.8%</text>
<line x1="95" y1="252.00" x2="1155" y2="252.00" stroke="#d9d9d9" stroke-width="1"/>
<text x="83" y="258.00" text-anchor="end" font-size="18" fill="#555555">1.2%</text>
<line x1="95" y1="151.00" x2="1155" y2="151.00" stroke="#d9d9d9" stroke-width="1"/>
<text x="83" y="157.00" text-anchor="end" font-size="18" fill="#555555">4.1%</text>
<line x1="95" y1="50.00" x2="1155" y2="50.00" stroke="#d9d9d9" stroke-width="1"/>
<text x="83" y="56.00" text-anchor="end" font-size="18" fill="#555555">7.0%</text>
<line x1="95" y1="50" x2="95" y2="555" stroke="#777777" stroke-width="2"/>
<line x1="95" y1="555" x2="1155" y2="555" stroke="#777777" stroke-width="2"/>
<text x="95.00" y="587" text-anchor="middle" font-size="18" fill="#333333">-5</text>
<text x="201.00" y="587" text-anchor="middle" font-size="18" fill="#333333">-4</text>
<text x="307.00" y="587" text-anchor="middle" font-size="18" fill="#333333">-3</text>
<text x="413.00" y="587" text-anchor="middle" font-size="18" fill="#333333">-2</text>
<text x="519.00" y="587" text-anchor="middle" font-size="18" fill="#333333">-1</text>
<text x="625.00" y="587" text-anchor="middle" font-size="18" fill="#333333">0</text>
<text x="731.00" y="587" text-anchor="middle" font-size="18" fill="#333333">1</text>
<text x="837.00" y="587" text-anchor="middle" font-size="18" fill="#333333">2</text>
<text x="943.00" y="587" text-anchor="middle" font-size="18" fill="#333333">3</text>
<text x="1049.00" y="587" text-anchor="middle" font-size="18" fill="#333333">4</text>
<text x="1155.00" y="587" text-anchor="middle" font-size="18" fill="#333333">5</text>
<polyline points="95.00,272.97 201.00,228.59 307.00,223.32 413.00,250.01 519.00,250.01 625.00,280.91 731.00,275.10 837.00,234.51 943.00,190.79 1049.00,219.04 1155.00,251.58" fill="none" stroke="#4472C4" stroke-width="4" stroke-linejoin="round"/>
<circle cx="95.00" cy="272.97" r="4" fill="#4472C4"/>
<circle cx="201.00" cy="228.59" r="4" fill="#4472C4"/>
<circle cx="307.00" cy="223.32" r="4" fill="#4472C4"/>
<circle cx="413.00" cy="250.01" r="4" fill="#4472C4"/>
<circle cx="519.00" cy="250.01" r="4" fill="#4472C4"/>
<circle cx="625.00" cy="280.91" r="4" fill="#4472C4"/>
<circle cx="731.00" cy="275.10" r="4" fill="#4472C4"/>
<circle cx="837.00" cy="234.51" r="4" fill="#4472C4"/>
<circle cx="943.00" cy="190.79" r="4" fill="#4472C4"/>
<circle cx="1049.00" cy="219.04" r="4" fill="#4472C4"/>
<circle cx="1155.00" cy="251.58" r="4" fill="#4472C4"/>
<polyline points="95.00,241.38 201.00,278.21 307.00,294.36 413.00,276.03 519.00,239.07 625.00,249.25 731.00,271.55 837.00,254.59 943.00,295.73 1049.00,303.73 1155.00,287.06" fill="none" stroke="#ED7D31" stroke-width="4" stroke-linejoin="round"/>
<circle cx="95.00" cy="241.38" r="4" fill="#ED7D31"/>
<circle cx="201.00" cy="278.21" r="4" fill="#ED7D31"/>
<circle cx="307.00" cy="294.36" r="4" fill="#ED7D31"/>
<circle cx="413.00" cy="276.03" r="4" fill="#ED7D31"/>
<circle cx="519.00" cy="239.07" r="4" fill="#ED7D31"/>
<circle cx="625.00" cy="249.25" r="4" fill="#ED7D31"/>
<circle cx="731.00" cy="271.55" r="4" fill="#ED7D31"/>
<circle cx="837.00" cy="254.59" r="4" fill="#ED7D31"/>
<circle cx="943.00" cy="295.73" r="4" fill="#ED7D31"/>
<circle cx="1049.00" cy="303.73" r="4" fill="#ED7D31"/>
<circle cx="1155.00" cy="287.06" r="4" fill="#ED7D31"/>
<polyline points="95.00,271.19 201.00,246.90 307.00,315.17 413.00,257.53 519.00,244.82 625.00,230.67 731.00,189.58 837.00,178.76 943.00,138.03 1049.00,185.30 1155.00,98.87" fill="none" stroke="#A5A5A5" stroke-width="4" stroke-linejoin="round"/>
<circle cx="95.00" cy="271.19" r="4" fill="#A5A5A5"/>
<circle cx="201.00" cy="246.90" r="4" fill="#A5A5A5"/>
<circle cx="307.00" cy="315.17" r="4" fill="#A5A5A5"/>
<circle cx="413.00" cy="257.53" r="4" fill="#A5A5A5"/>
<circle cx="519.00" cy="244.82" r="4" fill="#A5A5A5"/>
<circle cx="625.00" cy="230.67" r="4" fill="#A5A5A5"/>
<circle cx="731.00" cy="189.58" r="4" fill="#A5A5A5"/>
<circle cx="837.00" cy="178.76" r="4" fill="#A5A5A5"/>
<circle cx="943.00" cy="138.03" r="4" fill="#A5A5A5"/>
<circle cx="1049.00" cy="185.30" r="4" fill="#A5A5A5"/>
<circle cx="1155.00" cy="98.87" r="4" fill="#A5A5A5"/>
<polyline points="95.00,319.19 201.00,390.76 307.00,506.13 413.00,415.56 519.00,462.21 625.00,449.87 731.00,417.16 837.00,394.91 943.00,392.53 1049.00,407.59 1155.00,400.99" fill="none" stroke="#FFC000" stroke-width="4" stroke-linejoin="round"/>
<circle cx="95.00" cy="319.19" r="4" fill="#FFC000"/>
<circle cx="201.00" cy="390.76" r="4" fill="#FFC000"/>
<circle cx="307.00" cy="506.13" r="4" fill="#FFC000"/>
<circle cx="413.00" cy="415.56" r="4" fill="#FFC000"/>
<circle cx="519.00" cy="462.21" r="4" fill="#FFC000"/>
<circle cx="625.00" cy="449.87" r="4" fill="#FFC000"/>
<circle cx="731.00" cy="417.16" r="4" fill="#FFC000"/>
<circle cx="837.00" cy="394.91" r="4" fill="#FFC000"/>
<circle cx="943.00" cy="392.53" r="4" fill="#FFC000"/>
<circle cx="1049.00" cy="407.59" r="4" fill="#FFC000"/>
<circle cx="1155.00" cy="400.99" r="4" fill="#FFC000"/>
<line x1="96.00" y1="631" x2="121.00" y2="631" stroke="#4472C4" stroke-width="5"/>
<text x="130.00" y="638" font-size="22" fill="#222222">대기업 고노출</text>
<line x1="336.00" y1="631" x2="361.00" y2="631" stroke="#ED7D31" stroke-width="5"/>
<text x="370.00" y="638" font-size="22" fill="#222222">대기업 저노출</text>
<line x1="576.00" y1="631" x2="601.00" y2="631" stroke="#A5A5A5" stroke-width="5"/>
<text x="610.00" y="638" font-size="22" fill="#222222">중소기업 고노출</text>
<line x1="840.00" y1="631" x2="865.00" y2="631" stroke="#FFC000" stroke-width="5"/>
<text x="874.00" y="638" font-size="22" fill="#222222">중소기업 저노출</text>
</g>
</svg>
